HIERARCHY
ROOT root
{
	OFFSET	0	13.1	24.9
	CHANNELS 6  Xposition Yposition Zposition Xrotation Yrotation Zrotation
	JOINT spine_1
	{
		OFFSET	0	9.99999	0
		CHANNELS 3  Xrotation Yrotation Zrotation
		JOINT spine_2
		{
			OFFSET	0	112	-10
			CHANNELS 3  Xrotation Yrotation Zrotation
			JOINT spine_3
			{
				OFFSET	0	206.5	19.3
				CHANNELS 3  Xrotation Yrotation Zrotation
				JOINT spine_4
				{
					OFFSET	0	110.4	14.6
					CHANNELS 3  Xrotation Yrotation Zrotation
					JOINT neck_1
					{
						OFFSET	0	71.8	-50.3
						CHANNELS 3  Xrotation Yrotation Zrotation
						JOINT neck_2
						{
							OFFSET	0	86.2	-25.8
							CHANNELS 3  Xrotation Yrotation Zrotation
							JOINT head_ee
							{
								OFFSET	0	179.8	-8.7
								CHANNELS 3  Xrotation Yrotation Zrotation
								End Site
								{
									OFFSET	1	0	0
								}
							}
						}
					}
					JOINT left_clavicle
					{
						OFFSET	-43.2	22.4	-70.8
						CHANNELS 3  Xrotation Yrotation Zrotation
						JOINT left_shoulder
						{
							OFFSET	-93.9	-5.79999	48.7
							CHANNELS 3  Xrotation Yrotation Zrotation
							JOINT left_elbow
							{
								OFFSET	-291.4	-30.8	15.2
								CHANNELS 3  Xrotation Yrotation Zrotation
								JOINT left_lowarm_twist
								{
									OFFSET	-110.7	-3.89999	13.6
									CHANNELS 3  Xrotation Yrotation Zrotation
									JOINT left_hand
									{
										OFFSET	-110.7	-3.89999	13.6
										CHANNELS 3  Xrotation Yrotation Zrotation
										JOINT left_ee
										{
											OFFSET	-80.8	-5.10001	12.1
											CHANNELS 3  Xrotation Yrotation Zrotation
											End Site
											{
												OFFSET	1	0	0
											}
										}
									}
								}
							}
						}
					}
					JOINT right_clavicle
					{
						OFFSET	43.2	22.4	-70.8
						CHANNELS 3  Xrotation Yrotation Zrotation
						JOINT right_shoulder
						{
							OFFSET	93.9	-5.79999	48.7
							CHANNELS 3  Xrotation Yrotation Zrotation
							JOINT right_elbow
							{
								OFFSET	291.4	-30.8	15.2
								CHANNELS 3  Xrotation Yrotation Zrotation
								JOINT right_lowarm_twist
								{
									OFFSET	110.7	-3.89999	13.6
									CHANNELS 3  Xrotation Yrotation Zrotation
									JOINT right_hand
									{
										OFFSET	110.7	-3.89999	13.6
										CHANNELS 3  Xrotation Yrotation Zrotation
										JOINT right_ee
										{
											OFFSET	80.8	-5.10001	12.1
											CHANNELS 3  Xrotation Yrotation Zrotation
											End Site
											{
												OFFSET	1	0	0
											}
										}
									}
								}
							}
						}
					}
				}
			}
		}
	}
	JOINT left_hip
	{
		OFFSET	-82.8	-127.5	0.300001
		CHANNELS 3  Xrotation Yrotation Zrotation
		JOINT left_knee
		{
			OFFSET	-28.2	-396.7	2.2
			CHANNELS 3  Xrotation Yrotation Zrotation
			JOINT left_ankle
			{
				OFFSET	-11.7	-411.3	35.4
				CHANNELS 3  Xrotation Yrotation Zrotation
				JOINT left_toes
				{
					OFFSET	0	-60	-88.6
					CHANNELS 3  Xrotation Yrotation Zrotation
					JOINT left_foot_ee
					{
						OFFSET	-22.5	-16.5	-42.2
						CHANNELS 3  Xrotation Yrotation Zrotation
						End Site
						{
							OFFSET	1	0	0
						}
					}
				}
			}
		}
	}
	JOINT right_hip
	{
		OFFSET	82.8	-127.5	0.300001
		CHANNELS 3  Xrotation Yrotation Zrotation
		JOINT right_knee
		{
			OFFSET	28.2	-396.7	2.2
			CHANNELS 3  Xrotation Yrotation Zrotation
			JOINT right_ankle
			{
				OFFSET	11.7	-411.3	35.4
				CHANNELS 3  Xrotation Yrotation Zrotation
				JOINT right_toes
				{
					OFFSET	0	-60	-88.6
					CHANNELS 3  Xrotation Yrotation Zrotation
					JOINT right_foot_ee
					{
						OFFSET	22.5	-16.5	-42.2
						CHANNELS 3  Xrotation Yrotation Zrotation
						End Site
						{
							OFFSET	1	0	0
						}
					}
				}
			}
		}
	}
}
MOTION
Frames: 16
Frame Time: 0.02
1337.82 695.089 -1480.41 -13.5256 51.8641 7.56388 5.9696 0.536225 3.46047 5.97621 0.315077 3.48753 5.98787 -0.0599224 3.50121 5.9711 0.493442 3.46682 -7.48391 0.190058 -4.47584 -7.42446 3.55625 -4.41902 -0.0 0.0 -0.0 -4.73594 21.058 -4.39588 -21.2681 -25.5124 61.4874 1.09132 -28.3951 0.276104 35.4953 -0.135924 -4.46057 -1.69581 28.4403 1.91585 -0.0 0.0 -0.0 9.54587 -3.03894 -18.5672 -18.0101 35.7691 -67.9523 0.968808 25.6368 -0.22044 46.5826 0.735161 5.74353 0.7678 8.43963 -1.60102 0.0 0.0 0.0 34.2393 6.06858 -5.57336 2.51745 -0.111824 -0.370073 -3.37767 2.19506 0.501047 -24.4719 0.0 0.0 -0.0 0.0 -0.0 -1.22425 3.59785 3.96442 -18.1958 -0.312749 -2.76307 40.6104 1.88657 4.94444 -5.31711 0.0 0.0 0.0 0.0 0.0 
1319.39 695.391 -1487.35 -14.4845 52.2172 8.86387 6.00414 0.398078 3.43063 6.01066 0.179103 3.44898 6.01403 -0.189656 3.44842 5.99762 0.357008 3.43514 -6.85342 0.614672 -4.01505 -6.80352 4.05099 -3.89971 -0.0 0.0 -0.0 -4.55717 18.3453 -4.79008 -21.2164 -26.0351 61.8154 1.12805 -29.1957 0.293798 35.9333 -0.15481 -4.51329 -1.80622 28.2962 1.25268 -0.0 0.0 -0.0 9.81597 -3.03217 -19.1085 -19.5564 35.5479 -67.8763 0.81065 21.8789 -0.156688 46.7479 0.745951 5.76173 0.482312 4.9301 -1.16162 0.0 0.0 0.0 33.4958 6.21925 -5.53723 2.57761 -0.114696 -0.378856 -3.84479 3.30345 0.569768 -24.2435 0.0 0.0 -0.0 0.0 -0.0 -1.09249 3.42476 3.67505 -18.4649 -0.310748 -2.80432 40.4007 0.797847 4.91651 -4.53502 0.0 0.0 0.0 0.0 0.0 
1300.47 701.127 -1492.49 -14.4783 52.7871 8.95307 5.97511 0.310459 3.29275 5.98114 0.100421 3.30581 5.98018 -0.254684 3.29753 5.96511 0.269004 3.29639 -6.17554 0.676461 -4.20383 -6.11882 4.34045 -4.11039 -0.0 0.0 -0.0 -4.41231 16.5111 -4.99716 -20.4939 -26.6419 62.45 1.15865 -29.853 0.308876 36.4106 -0.175852 -4.57057 -1.92589 28.4158 0.663143 -0.0 0.0 -0.0 9.96607 -3.01961 -19.411 -21.4122 35.2628 -68.0779 0.653715 17.9437 -0.10321 46.6582 0.740092 5.75186 0.220238 1.76823 -0.729941 0.0 0.0 0.0 32.4409 6.88626 -4.48309 2.37783 -0.105197 -0.349677 -4.28663 4.60183 0.634645 -24.1319 0.0 0.0 -0.0 0.0 -0.0 -1.19221 3.3063 3.30421 -18.798 -0.308005 -2.85534 40.5377 0.060165 4.92227 -3.42357 0.0 0.0 0.0 0.0 0.0 
1272.9 709.394 -1503.27 -13.5705 52.6845 9.01183 5.9308 0.177965 3.27825 5.93678 -0.030884 3.28292 5.92845 -0.385931 3.26033 5.91364 0.133534 3.28035 -5.8133 0.58495 -3.88577 -5.76411 3.95594 -3.82317 -0.0 0.0 -0.0 -4.4814 14.8301 -5.5003 -20.2075 -26.8717 62.8702 1.16823 -30.0571 0.31366 36.2221 -0.167483 -4.54796 -2.25913 28.6496 -1.01728 -0.0 0.0 -0.0 9.74801 -4.54105 -18.8703 -23.6896 34.6994 -68.5631 0.530984 14.7371 -0.0686668 45.172 0.645246 5.58698 0.0427039 -0.0589349 -0.309957 0.0 0.0 0.0 31.4495 7.27769 -5.23568 -2.0204 0.0779002 0.30026 -0.00809112 6.43029 0.00118478 -20.2403 0.0 0.0 -0.0 0.0 -0.0 -0.711197 3.41688 2.57508 -22.7777 -0.252315 -3.46335 39.5772 -0.460676 4.83618 -1.92188 0.0 0.0 0.0 0.0 0.0 
1255.87 715.786 -1509.06 -13.727 53.4319 9.7739 5.90559 0.221413 3.14825 5.9111 0.0207344 3.15595 5.90621 -0.32199 3.13957 5.8925 0.177633 3.15102 -6.95239 0.606634 -4.07086 -6.90138 4.07109 -3.95271 -0.0 0.0 -0.0 -4.17869 12.2938 -5.56927 -19.8088 -27.2164 63.107 1.15169 -29.7043 0.305421 36.3654 -0.173835 -4.56515 -2.03035 27.2734 -0.454367 -0.0 0.0 -0.0 9.57773 -5.71617 -18.4492 -26.5615 34.5178 -68.1619 0.427026 11.9443 -0.0446725 46.4923 0.72929 5.73357 -0.162125 -2.3924 0.0700365 0.0 0.0 0.0 28.6159 7.95129 -5.44344 -1.35254 0.0533234 0.200712 -0.246998 9.7397 0.0361769 -22.585 0.0 0.0 -0.0 0.0 -0.0 0.221866 2.37278 1.7607 -23.2832 -0.242223 -3.54025 39.6636 -1.01043 4.84025 -0.549293 0.0 0.0 0.0 0.0 0.0 
1232.53 726.189 -1515.21 -11.1811 52.9567 7.52881 5.88172 0.314216 3.20623 5.88743 0.109667 3.21971 5.88733 -0.241439 3.21252 5.87303 0.268681 3.21036 -8.35686 0.169973 -5.84745 -8.25822 4.42512 -5.74604 -0.0 0.0 -0.0 -3.93535 9.55023 -5.7376 -19.0047 -27.508 62.9025 1.14121 -29.4794 0.300244 36.3716 -0.174111 -4.56589 -2.02794 26.3301 -0.899606 -0.0 0.0 -0.0 9.27949 -7.1864 -17.761 -28.7719 34.1365 -69.8689 0.34996 9.83525 -0.0301107 45.7774 0.683362 5.65444 -0.23627 -4.21323 -0.20825 0.0 0.0 0.0 26.1639 8.51023 -4.79429 -4.08227 0.146421 0.609262 2.77481 12.2675 -0.404208 -21.6583 0.0 0.0 -0.0 0.0 -0.0 0.5494 3.01093 1.03449 -25.6328 -0.186418 -3.89648 39.9909 -0.987561 4.86865 0.871222 -0.0 -0.0 0.0 0.0 0.0 
1209.31 733.466 -1521.1 -9.41177 52.5369 6.27204 5.81727 0.323752 3.15473 5.8228 0.122455 3.16892 5.8236 -0.226693 3.16318 5.80975 0.275461 3.15931 -8.59075 0.149002 -5.98963 -8.48797 4.46468 -5.87937 -0.0 0.0 -0.0 -3.74744 7.13426 -5.89717 -18.3745 -27.7711 62.9037 1.14812 -29.6279 0.303657 36.3849 -0.174705 -4.56749 -2.01731 25.5582 -1.21585 -0.0 0.0 -0.0 8.69623 -8.26766 -16.5788 -30.7859 33.8646 -70.5599 0.291551 8.21836 -0.0209457 45.4618 0.663404 5.61932 -0.399878 -5.40733 0.36114 0.0 0.0 0.0 24.3838 8.83542 -4.83574 -6.07116 0.201933 0.909427 4.96577 14.2136 -0.721221 -21.3843 0.0 0.0 -0.0 0.0 -0.0 0.248561 1.26845 0.866954 -27.836 -0.120849 -4.22823 39.601 -0.574901 4.8375 1.8332 -0.0 -0.0 0.0 0.0 0.0 
1186.25 732.713 -1523.31 -7.77055 51.3547 4.08864 5.55845 0.415743 3.50557 5.56526 0.191973 3.52489 5.57017 -0.21228 3.52372 5.55301 0.346539 3.51307 -9.2199 0.0209974 -6.43408 -9.10321 4.47372 -6.31468 -0.0 0.0 -0.0 -3.62243 5.51046 -5.98964 -17.5839 -27.9122 63.2429 1.07302 -27.9919 0.267461 35.5784 -0.139475 -4.47058 -2.29137 24.2582 -3.4062 -0.0 0.0 -0.0 8.22948 -8.49494 -15.6958 -32.2252 33.645 -70.339 0.244707 6.91186 -0.014778 45.2691 0.651316 5.59784 -0.478538 -6.27479 0.506383 0.0 0.0 0.0 23.3271 9.10998 -3.97313 -9.76339 0.277222 1.47092 9.03834 14.2385 -1.29673 -17.7548 0.0 0.0 -0.0 0.0 -0.0 0.87759 4.66297 2.63902 -29.6799 -0.0561923 -4.50382 37.7101 -2.57829 4.659 2.22247 -0.0 -0.0 0.0 0.0 0.0 
1167.18 730.32 -1524.35 -6.53495 49.5806 2.69987 5.62385 0.635791 3.61405 5.63102 0.404688 3.64712 5.64928 -0.00945013 3.66946 5.63094 0.569805 3.62502 -8.07704 -0.236676 -9.41216 -7.8191 6.22039 -9.39849 -0.0 0.0 -0.0 -3.56351 3.56907 -6.25417 -16.7034 -27.6969 62.9269 1.01516 -26.6963 0.24088 35.0217 -0.115956 -4.40341 -2.59264 23.7375 -5.39619 -0.0 0.0 -0.0 7.5764 -5.87425 -14.6036 -33.6373 33.4602 -71.3467 0.288652 8.13774 -0.0205333 46.2074 0.710867 5.7021 0.289176 -7.46489 -4.99103 0.0 0.0 0.0 22.3041 9.11436 -3.76105 -12.1359 0.306446 1.83376 12.337 16.1417 -1.75783 -14.1156 0.0 0.0 -0.0 0.0 -0.0 0.849128 5.51847 3.64703 -31.0182 -0.00372181 -4.70249 38.1044 -3.46035 4.69203 2.58049 -0.0 -0.0 0.0 0.0 0.0 
1156.88 733.129 -1526.8 -5.82654 48.4191 1.42779 5.6687 0.568651 3.82059 5.67676 0.32457 3.84897 5.69009 -0.109283 3.86107 5.66964 0.501416 3.82998 -11.8322 1.71965 -9.31012 -11.624 9.28877 -8.5108 -0.0 0.0 -0.0 -3.51316 2.91738 -6.28202 -15.569 -26.7327 61.7392 1.02992 -27.0298 0.247552 33.8218 -0.0674965 -4.25789 -2.77322 21.3008 -7.74659 -0.0 0.0 -0.0 7.57395 -4.70212 -14.6385 -34.4533 33.3883 -71.8126 0.263489 7.43665 -0.0171237 47.2242 0.777334 5.814 0.398677 -8.53929 -6.13265 0.0 0.0 0.0 21.5145 9.37459 -2.80631 -15.8479 0.321973 2.40298 13.7719 17.4419 -1.95927 -11.7986 0.0 0.0 -0.0 0.0 -0.0 1.73601 8.37178 3.645 -33.5511 0.108248 -5.07499 38.6912 -3.61316 4.74433 2.43291 -0.0 -0.0 0.0 0.0 0.0 
1135.74 735.069 -1527.31 -4.28863 46.9035 0.0605676 5.28903 0.587569 3.88139 5.29735 0.339589 3.91085 5.31266 -0.127163 3.92349 5.29153 0.493595 3.89444 -13.4716 1.60854 -10.7608 -13.2057 9.74757 -9.79889 -0.0 0.0 -0.0 -3.38181 2.17139 -6.16976 -14.7473 -26.9435 60.9324 0.987773 -26.0726 0.22871 32.9683 -0.0348885 -4.15379 -2.97963 20.6242 -9.345 -0.0 0.0 -0.0 7.25216 -3.12346 -14.0581 -35.1989 33.7062 -72.6668 0.258954 7.31005 -0.0165417 47.447 0.792167 5.83836 0.486165 -7.93308 -6.46227 0.0 0.0 0.0 20.2412 9.42258 -2.17614 -18.8435 0.307608 2.86232 15.4648 18.7975 -2.1959 -7.88745 0.0 0.0 -0.0 0.0 -0.0 3.71569 9.33912 2.83246 -35.0096 0.180176 -5.28717 36.7998 -4.61875 4.57023 2.65228 -0.0 -0.0 0.0 0.0 0.0 
1125.04 738.52 -1528.44 -3.1861 46.1181 -1.34991 5.15582 0.538219 3.98859 5.16463 0.283533 4.0147 5.17652 -0.204877 4.01948 5.15424 0.431976 4.00147 -15.3084 2.76733 -10.9524 -15.0932 11.7571 -9.44457 -0.0 0.0 -0.0 -3.41134 1.18009 -6.40893 -13.6631 -26.8142 59.6528 0.979817 -25.8902 0.225225 32.3626 -0.0126917 -4.07963 -3.05835 19.3084 -10.5496 -0.0 0.0 -0.0 7.21969 -2.15908 -14.01 -35.5274 33.9143 -73.0125 0.269055 7.59194 -0.0178517 47.7071 0.809597 5.86673 0.610515 -8.94604 -7.6698 0.0 0.0 0.0 19.4005 9.49818 -1.42601 -21.0479 0.281711 3.19955 17.1166 19.5257 -2.42124 -5.41009 0.0 0.0 -0.0 0.0 -0.0 6.29126 10.325 2.05461 -37.4095 0.31024 -5.6322 36.4586 -3.54808 4.54022 2.4045 -0.0 -0.0 0.0 0.0 0.0 
1115.58 741.769 -1528.69 -3.14607 44.7873 -1.53938 5.33165 0.51414 3.86282 5.33991 0.267487 3.88765 5.35018 -0.193611 3.89203 5.3293 0.42302 3.87384 -16.0689 3.32078 -11.0554 -15.8851 12.7427 -9.27688 -0.0 0.0 -0.0 -3.33044 0.585182 -6.35974 -13.2123 -26.768 58.8628 1.00625 -26.4942 0.236894 31.9482 0.00204308 -4.02875 -2.91193 18.6036 -10.0433 -0.0 0.0 -0.0 7.13608 -1.34769 -13.855 -36.2545 33.986 -72.4146 0.260588 7.35569 -0.0167503 48.2477 0.846241 5.92543 0.836915 -7.61752 -8.63478 0.0 0.0 0.0 18.0569 9.90369 -0.568821 -21.3209 0.277602 3.24123 18.57 20.148 -2.61778 -5.29919 0.0 0.0 -0.0 0.0 -0.0 7.92443 11.0591 1.98438 -36.4056 0.254068 -5.48852 35.9185 -3.92424 4.48835 2.23004 -0.0 -0.0 0.0 0.0 0.0 
1103.95 742.671 -1527.28 -3.0838 43.2312 -1.71632 5.2268 0.481705 3.81044 5.23484 0.238443 3.83333 5.24336 -0.223247 3.83424 5.22306 0.384648 3.82144 -16.9167 3.93882 -11.4412 -16.7631 13.9947 -9.33117 -0.0 0.0 -0.0 -3.50798 0.165874 -6.78304 -12.6943 -26.7746 58.4915 1.04993 -27.4785 0.256715 31.2395 0.0263848 -3.94152 -2.67893 17.4405 -9.23686 -0.0 0.0 -0.0 6.93952 -2.30111 -13.4629 -38.1249 33.8281 -70.2573 0.37415 10.5004 -0.034381 48.9147 0.892211 5.99738 0.8966 -6.75368 -8.69275 0.0 0.0 0.0 17.4483 10.7337 -0.113123 -21.6677 0.272095 3.29416 19.0998 20.6143 -2.69169 -3.78649 0.0 0.0 -0.0 0.0 -0.0 9.61346 11.7093 2.27287 -36.8494 0.278592 -5.55216 35.259 -3.75042 4.42565 2.32135 -0.0 -0.0 0.0 0.0 0.0 
1094.35 742.657 -1527.05 -3.15313 41.9798 -1.76502 5.29404 0.474954 3.69058 5.30159 0.239316 3.71328 5.30999 -0.203623 3.71541 5.29093 0.3853 3.701 -17.5231 4.22655 -10.7155 -17.4319 14.033 -8.46933 -0.0 0.0 -0.0 -3.43835 -0.596635 -6.78448 -12.2864 -26.8481 57.575 1.05102 -27.5027 0.257215 31.3553 0.0224799 -3.95579 -3.03175 17.1907 -11.5582 -0.0 0.0 -0.0 6.93835 -0.157337 -13.4699 -36.8002 34.2947 -72.348 0.273116 7.70514 -0.018392 48.055 0.833111 5.90454 0.908362 -8.8767 -9.58711 0.0 0.0 0.0 17.5261 9.74524 0.166829 -22.0645 0.265401 3.35468 20.2968 20.8833 -2.84923 -1.82763 0.0 0.0 -0.0 0.0 -0.0 10.7165 12.1897 2.65972 -37.1692 0.296567 -5.5979 34.8964 -3.45879 4.39135 2.00764 -0.0 -0.0 0.0 0.0 0.0 
1082.49 743.216 -1527.09 -2.88274 40.4336 -2.32943 5.29005 0.473303 3.75448 5.29786 0.233611 3.77695 5.30591 -0.217148 3.77793 5.2862 0.381797 3.76488 -16.9699 4.14638 -10.7626 -16.8607 14.0003 -8.60516 -0.0 0.0 -0.0 -3.54785 -1.14585 -7.10035 -12.3487 -26.8543 56.6672 1.06228 -27.7537 0.26244 30.8604 0.0389621 -3.89473 -3.04063 16.7489 -11.8573 -0.0 0.0 -0.0 6.41025 0.491854 -12.4205 -36.9886 34.5848 -72.5335 0.377164 10.5831 -0.0349325 48.2387 0.845624 5.92446 1.02724 -7.92799 -10.0063 0.0 0.0 0.0 16.9629 10.3727 0.565056 -22.2994 0.261241 3.39049 20.2671 21.9127 -2.85843 -1.81188 0.0 0.0 -0.0 0.0 -0.0 12.5722 12.2674 2.15739 -37.0172 0.287988 -5.57616 35.5595 -3.49088 4.45516 1.99496 -0.0 -0.0 0.0 0.0 0.0 
